{
    "asset" : {
        "generator" : "Khronos glTF Blender I/O v1.5.17",
        "version" : "2.0"
    },
    "scene" : 0,
    "scenes" : [
        {
            "name" : "Scene",
            "nodes" : [
                0,
                1,
                2
            ]
        }
    ],
    "nodes" : [
        {
            "name" : "Light",
            "rotation" : [
                0.16907575726509094,
                0.7558803558349609,
                -0.27217137813568115,
                0.570947527885437
            ],
            "translation" : [
                4.076245307922363,
                5.903861999511719,
                -1.0054539442062378
            ]
        },
        {
            "name" : "Camera",
            "rotation" : [
                0.483536034822464,
                0.33687159419059753,
                -0.20870360732078552,
                0.7804827094078064
            ],
            "translation" : [
                7.358891487121582,
                4.958309173583984,
                6.925790786743164
            ]
        },
        {
            "mesh" : 0,
            "name" : "Cylinder",
            "scale" : [
                0.06523150205612183,
                -0.0026946014259010553,
                0.06523150205612183
            ],
            "translation" : [
                0.002209872007369995,
                -0.003038555383682251,
                -0.0012496896088123322
            ]
        }
    ],
    "meshes" : [
        {
            "name" : "Cylinder.003",
            "primitives" : [
                {
                    "attributes" : {
                        "POSITION" : 0,
                        "NORMAL" : 1,
                        "TEXCOORD_0" : 2
                    },
                    "indices" : 3
                }
            ]
        }
    ],
    "accessors" : [
        {
            "bufferView" : 0,
            "componentType" : 5126,
            "count" : 1074,
            "max" : [
                22.774757385253906,
                75.3446044921875,
                22.774770736694336
            ],
            "min" : [
                -22.774765014648438,
                -1,
                -22.774749755859375
            ],
            "type" : "VEC3"
        },
        {
            "bufferView" : 1,
            "componentType" : 5126,
            "count" : 1074,
            "type" : "VEC3"
        },
        {
            "bufferView" : 2,
            "componentType" : 5126,
            "count" : 1074,
            "type" : "VEC2"
        },
        {
            "bufferView" : 3,
            "componentType" : 5123,
            "count" : 1716,
            "type" : "SCALAR"
        }
    ],
    "bufferViews" : [
        {
            "buffer" : 0,
            "byteLength" : 12888,
            "byteOffset" : 0
        },
        {
            "buffer" : 0,
            "byteLength" : 12888,
            "byteOffset" : 12888
        },
        {
            "buffer" : 0,
            "byteLength" : 8592,
            "byteOffset" : 25776
        },
        {
            "buffer" : 0,
            "byteLength" : 3432,
            "byteOffset" : 34368
        }
    ],
    "buffers" : [
        {
            "byteLength" : 37800,
            "uri" : "disc.bin"
        }
    ]
}
